<svg id="Layer_1" data-name="Layer 1" xmlns="http://www.w3.org/2000/svg" viewBox="0 0 137.44 83.05">
  <defs>
    <style>
      .cls-1, .cls-2 {
        fill: #3d59a8;
      }

      .cls-2 {
        font-size: 4.85px;
        font-family: VastagoGrotesk-Bold, Vastago Grotesk;
        font-weight: 700;
      }
    </style>
  </defs>
  <g>
    <g>
      <path class="cls-1" d="M191.61-200.14a4.91,4.91,0,0,1-3.39-1.35,4.88,4.88,0,0,1-1.53-3.57,6.55,6.55,0,0,0-4.61-6.28,6.58,6.58,0,0,0-2-.3,4.86,4.86,0,0,1-1.84-.36,4.89,4.89,0,0,1-3.08-4.56,4.9,4.9,0,0,1,1.67-3.69,4.92,4.92,0,0,1,3.12-1.23,3.8,3.8,0,0,0,3.8-3.22,3.73,3.73,0,0,0-.89-2.94,3.72,3.72,0,0,0-2.78-1.26,4.9,4.9,0,0,1-3.25-1.23,4.88,4.88,0,0,1-1.67-3.69,4.91,4.91,0,0,1,3.08-4.56,5.05,5.05,0,0,1,1.84-.35,6.29,6.29,0,0,0,2-.31,6.53,6.53,0,0,0,4.61-6.27,4.94,4.94,0,0,1,1.53-3.57,4.86,4.86,0,0,1,3.39-1.36,4.93,4.93,0,0,1,4.92,4.93v11.49c0,.15,0,.3,0,.44a1.9,1.9,0,0,1-1.91,1.7,1.9,1.9,0,0,1-1.17-.4l-3-2.25a2.2,2.2,0,0,0-1.36-.47,2.28,2.28,0,0,0-2.28,2.27,2.31,2.31,0,0,0,.9,1.82l5.23,4a2,2,0,0,1,.77,1.56,1.94,1.94,0,0,1-.77,1.56l-5.23,4a2.28,2.28,0,0,0-.9,1.81,2.28,2.28,0,0,0,2.28,2.27,2.2,2.2,0,0,0,1.36-.47l3-2.25a1.9,1.9,0,0,1,1.16-.4,1.9,1.9,0,0,1,1.92,1.7c0,.15,0,.29,0,.44v11.33a5,5,0,0,1-4.47,5.07Z" transform="translate(-129.41 250.24)"/>
      <path class="cls-1" d="M204.54-200.14a4.91,4.91,0,0,0,3.39-1.35,4.92,4.92,0,0,0,1.53-3.57,6.55,6.55,0,0,1,4.61-6.28,6.58,6.58,0,0,1,2-.3,4.78,4.78,0,0,0,1.83-.36,4.88,4.88,0,0,0,3.09-4.56,4.93,4.93,0,0,0-1.67-3.69,4.92,4.92,0,0,0-3.12-1.23,3.8,3.8,0,0,1-3.8-3.22,3.73,3.73,0,0,1,.89-2.94A3.7,3.7,0,0,1,216-228.9a4.92,4.92,0,0,0,3.25-1.23,4.92,4.92,0,0,0,1.67-3.69,4.91,4.91,0,0,0-3.08-4.56,5.05,5.05,0,0,0-1.84-.35,6.29,6.29,0,0,1-2-.31,6.53,6.53,0,0,1-4.61-6.27,4.94,4.94,0,0,0-1.53-3.57,4.87,4.87,0,0,0-3.39-1.36,4.93,4.93,0,0,0-4.92,4.93v11.49c0,.15,0,.3,0,.44a1.9,1.9,0,0,0,1.91,1.7,1.93,1.93,0,0,0,1.17-.4l3-2.25a2.2,2.2,0,0,1,1.36-.47,2.28,2.28,0,0,1,2.28,2.27,2.31,2.31,0,0,1-.9,1.82l-5.23,4a2,2,0,0,0-.77,1.56,1.94,1.94,0,0,0,.77,1.56l5.23,4a2.28,2.28,0,0,1,.9,1.81,2.28,2.28,0,0,1-2.28,2.27,2.2,2.2,0,0,1-1.36-.47l-3-2.25a1.93,1.93,0,0,0-1.17-.4,1.9,1.9,0,0,0-1.91,1.7c0,.15,0,.29,0,.44v11.33a5,5,0,0,0,4.47,5.07Z" transform="translate(-129.41 250.24)"/>
    </g>
    <g>
      <g>
        <path class="cls-1" d="M155.82-186.3v16.4a2.25,2.25,0,0,1-2.25,2.24h-3.1v-7.87c0-1.53.1-3.13.23-4.81.17-2.12.41-4.11.7-6a.54.54,0,0,0-.36-.18.59.59,0,0,0-.4.12q-2.41,9.36-4.85,18.72h-6.12l-5.15-18.61a.41.41,0,0,0-.45-.23.44.44,0,0,0-.29.28c.31,1.84.57,3.84.74,6,.14,1.65.21,3.23.24,4.72v7.87h-3.11a2.25,2.25,0,0,1-2.24-2.24v-16.4a4.57,4.57,0,0,1,4.57-4.57,4.55,4.55,0,0,1,4.29,3l1.7,4.69q1,3.06,1.65,5.87a48.38,48.38,0,0,1,.94,4.83.22.22,0,0,0,.16.14.2.2,0,0,0,.21-.14c.23-1.52.5-3.12.89-4.8s.93-3.75,1.57-5.9l1.49-4.56a4.58,4.58,0,0,1,4.34-3.14h0A4.57,4.57,0,0,1,155.82-186.3Z" transform="translate(-129.41 250.24)"/>
        <path class="cls-1" d="M160.29-190.27a3.8,3.8,0,0,1,2.35-.6,3.79,3.79,0,0,1,2.37.62,2,2,0,0,1,.79,1.67c0,1.54-1.05,2.32-3.16,2.32s-3.13-.78-3.13-2.32A2,2,0,0,1,160.29-190.27Zm-.21,22.61v-17.22h5.12v17.22Z" transform="translate(-129.41 250.24)"/>
        <path class="cls-1" d="M185.88-179.74v12.08H180.8V-178a3.6,3.6,0,0,0-.69-2.37,2.53,2.53,0,0,0-2.06-.82,3.22,3.22,0,0,0-2.9,1.77,11.2,11.2,0,0,0-1,5.49v6.23H169v-17.22h4.2l.44,4.37h.64c1-3.23,3.07-4.84,6.25-4.84a5.26,5.26,0,0,1,4,1.44A5.79,5.79,0,0,1,185.88-179.74Z" transform="translate(-129.41 250.24)"/>
        <path class="cls-1" d="M206.87-191l.37,23.34h-4.17l-.34-4.27H202a5.78,5.78,0,0,1-6.15,4.74,6.91,6.91,0,0,1-5.42-2.31c-1.37-1.53-2-3.76-2-6.67a11.62,11.62,0,0,1,1-5.1,7,7,0,0,1,2.71-3.08,7.15,7.15,0,0,1,3.71-1q4.78,0,6.09,4.84h.71c0-.23,0-.88-.14-2q-.3-2.89-.3-4.71l-.37-3.83Zm-5.45,14.69a6.69,6.69,0,0,0-1.06-3.85,3.26,3.26,0,0,0-2.81-1.46,3.31,3.31,0,0,0-2.82,1.41,6.74,6.74,0,0,0-1,4.07,6.51,6.51,0,0,0,1,4,3.43,3.43,0,0,0,2.91,1.35,3.24,3.24,0,0,0,2.79-1.42A6.89,6.89,0,0,0,201.42-176.31Z" transform="translate(-129.41 250.24)"/>
        <path class="cls-1" d="M227-176.48c0,.3,0,.8-.07,1.52H215.14a5.11,5.11,0,0,0,1.16,3,3.35,3.35,0,0,0,2.58,1,3.71,3.71,0,0,0,2.37-.74,4.36,4.36,0,0,0,1.36-2l4.17.84a6.5,6.5,0,0,1-2.61,4,9.28,9.28,0,0,1-5.6,1.52,8.83,8.83,0,0,1-6.46-2.25c-1.52-1.51-2.28-3.68-2.28-6.53a9.51,9.51,0,0,1,2.37-6.83,8.75,8.75,0,0,1,6.51-2.55,7.76,7.76,0,0,1,6.15,2.4A9.4,9.4,0,0,1,227-176.48Zm-11.84-.94h7.1a5.58,5.58,0,0,0-.86-3.16,2.86,2.86,0,0,0-2.5-1.18,3.21,3.21,0,0,0-2.54,1.1A5.81,5.81,0,0,0,215.14-177.42Z" transform="translate(-129.41 250.24)"/>
        <path class="cls-1" d="M246.59-167.66h-5.72l-2.29-4.48a23.9,23.9,0,0,1-1.27-3.09h-.64c-.25.65-.59,1.4-1,2.25l-.41.84-2.32,4.48h-5.55l5.39-9.15-5-8.07h5.72l1.95,3.6.51,1a15.55,15.55,0,0,1,.77,1.58h.81q.13-.34.81-1.68l.43-.91,1.89-3.63h5.55l-4.91,8Z" transform="translate(-129.41 250.24)"/>
        <path class="cls-1" d="M265.34-167.56a5.1,5.1,0,0,1-1.93.37,3.6,3.6,0,0,1-2.58-.86,3.38,3.38,0,0,1-.89-2.54,13.25,13.25,0,0,1,.14-1.34h-.71a6.24,6.24,0,0,1-2.12,3.58,6.68,6.68,0,0,1-4.14,1.16,6.15,6.15,0,0,1-4.27-1.4,4.72,4.72,0,0,1-1.54-3.68,4.7,4.7,0,0,1,2.3-4.24,11.54,11.54,0,0,1,6.17-1.45,25.88,25.88,0,0,1,3.2.21v-1.08c0-2-1-3-3-3q-2.66,0-3.33,2.93l-4.54-.88a5.71,5.71,0,0,1,2.55-4.07,10,10,0,0,1,5.82-1.54,8.59,8.59,0,0,1,5.71,1.64,5.84,5.84,0,0,1,1.93,4.68v6.22a2.24,2.24,0,0,0,.27,1.18.8.8,0,0,0,.7.44,1.37,1.37,0,0,0,.81-.31l.88,3.16A5.2,5.2,0,0,1,265.34-167.56Zm-8.19-8a6.69,6.69,0,0,0-3.4.72,2.36,2.36,0,0,0-1.21,2.14,2,2,0,0,0,.62,1.56,2.43,2.43,0,0,0,1.67.56q3.66,0,4.07-4.88A15.28,15.28,0,0,0,257.15-175.6Z" transform="translate(-129.41 250.24)"/>
      </g>
      <text class="cls-2" transform="translate(133.11 65.35)">®</text>
    </g>
  </g>
</svg>
