<svg id="Layer_1" data-name="Layer 1" xmlns="http://www.w3.org/2000/svg" viewBox="0 0 400 88.98">
  <defs>
    <style>
      .cls-1, .cls-2 {
        fill: #3d59a8;
      }

      .cls-2 {
        font-size: 10.59px;
        font-family: VastagoGrotesk-Bold, Vastago Grotesk;
        font-weight: 700;
      }
    </style>
  </defs>
  <g>
    <g>
      <path class="cls-1" d="M29.17,89.49a8.73,8.73,0,0,1-8.74-8.73,11.66,11.66,0,0,0-8.19-11.17,11.83,11.83,0,0,0-3.5-.53,8.92,8.92,0,0,1-3.26-.63,8.74,8.74,0,0,1,3-16.84,6.77,6.77,0,0,0,6.75-5.73,6.65,6.65,0,0,0-1.59-5.22,6.58,6.58,0,0,0-4.94-2.23A8.73,8.73,0,0,1,5.48,21.57,8.87,8.87,0,0,1,8.74,21a11.84,11.84,0,0,0,3.5-.54A11.63,11.63,0,0,0,20.43,9.25a8.74,8.74,0,1,1,17.47,0V29.68c0,.26,0,.51,0,.77a3.36,3.36,0,0,1-3.4,3,3.4,3.4,0,0,1-2.07-.7l-5.29-4a4,4,0,0,0-2.42-.83,4,4,0,0,0-2.45,7.26l9.28,7a3.49,3.49,0,0,1,0,5.55l-9.29,7a4,4,0,1,0,4.87,6.42l5.29-4a3.4,3.4,0,0,1,2.07-.7,3.36,3.36,0,0,1,3.4,3c0,.25,0,.51,0,.77V80.45a9,9,0,0,1-7.93,9A7.26,7.26,0,0,1,29.17,89.49Z" transform="translate(0 -0.51)"/>
      <path class="cls-1" d="M52.14,89.49a8.73,8.73,0,0,0,8.73-8.73,11.66,11.66,0,0,1,8.19-11.17,11.83,11.83,0,0,1,3.5-.53,8.92,8.92,0,0,0,3.26-.63,8.74,8.74,0,0,0-3-16.84A6.78,6.78,0,0,1,66,45.86a6.65,6.65,0,0,1,1.59-5.22,6.58,6.58,0,0,1,4.94-2.23,8.73,8.73,0,0,0,3.26-16.84A8.87,8.87,0,0,0,72.56,21a11.84,11.84,0,0,1-3.5-.54A11.63,11.63,0,0,1,60.87,9.25a8.74,8.74,0,1,0-17.47,0V29.68a6.62,6.62,0,0,0,0,.77,3.35,3.35,0,0,0,3.39,3,3.4,3.4,0,0,0,2.07-.7l5.29-4a4,4,0,0,1,2.42-.83,4,4,0,0,1,2.45,7.26l-9.28,7a3.49,3.49,0,0,0,0,5.55l9.29,7a4,4,0,1,1-4.87,6.42l-5.29-4a3.4,3.4,0,0,0-2.07-.7,3.35,3.35,0,0,0-3.39,3,6.51,6.51,0,0,0,0,.77V80.45a9,9,0,0,0,7.93,9A7.32,7.32,0,0,0,52.14,89.49Z" transform="translate(0 -0.51)"/>
    </g>
    <g>
      <g>
        <path class="cls-1" d="M157.59,29.27v35.8a4.9,4.9,0,0,1-4.9,4.9h-6.78V52.78c.07-3.33.23-6.83.52-10.48.36-4.63.89-9,1.52-13.06a1.17,1.17,0,0,0-1.66-.13L135.7,70H122.34L111.1,29.34a.86.86,0,0,0-1.62.1c.67,4,1.24,8.39,1.62,13,.3,3.61.46,7.05.52,10.3V70h-6.79a4.9,4.9,0,0,1-4.89-4.9V29.27a10,10,0,0,1,19.35-3.4L123,36.11q2.13,6.69,3.6,12.82a106,106,0,0,1,2.05,10.53.42.42,0,0,0,.81,0c.49-3.3,1.09-6.81,1.93-10.46q1.34-5.84,3.43-12.89l3.26-9.95a10,10,0,0,1,9.48-6.87h.06A10,10,0,0,1,157.59,29.27Z" transform="translate(0 -0.51)"/>
        <path class="cls-1" d="M167.35,20.61a10.61,10.61,0,0,1,10.32,0,4.4,4.4,0,0,1,1.72,3.64q0,5.06-6.9,5.06t-6.83-5.06A4.41,4.41,0,0,1,167.35,20.61ZM166.91,70V32.37h11.16V70Z" transform="translate(0 -0.51)"/>
        <path class="cls-1" d="M223.23,43.6V70H212.14V47.49a7.87,7.87,0,0,0-1.5-5.17,5.57,5.57,0,0,0-4.52-1.8,7,7,0,0,0-6.32,3.85q-2.27,3.85-2.27,12V70H186.37V32.37h9.17l1,9.54h1.39q3.24-10.57,13.66-10.57c3.73,0,6.6,1.05,8.63,3.16S223.23,39.64,223.23,43.6Z" transform="translate(0 -0.51)"/>
        <path class="cls-1" d="M269.05,19l.81,51h-9.11L260,60.64H258.4Q255.68,71,245,71a15.05,15.05,0,0,1-11.82-5q-4.47-5-4.48-14.57a25.37,25.37,0,0,1,2.2-11.13,15.36,15.36,0,0,1,5.92-6.72,15.55,15.55,0,0,1,8.11-2.2q10.43,0,13.29,10.57h1.55q0-.73-.3-4.26a103,103,0,0,1-.66-10.28L258,19ZM257.16,51.09a14.71,14.71,0,0,0-2.32-8.41,7.08,7.08,0,0,0-6.13-3.19,7.29,7.29,0,0,0-6.17,3.08q-2.28,3.09-2.28,8.89t2.25,8.67a7.53,7.53,0,0,0,6.35,2.93A7.09,7.09,0,0,0,255,60Q257.16,56.89,257.16,51.09Z" transform="translate(0 -0.51)"/>
        <path class="cls-1" d="M313,50.73c0,.63,0,1.73-.14,3.3H287.11a11.14,11.14,0,0,0,2.54,6.65,7.31,7.31,0,0,0,5.61,2.24,8,8,0,0,0,5.18-1.62,9.45,9.45,0,0,0,3-4.26l9.1,1.84a14.23,14.23,0,0,1-5.69,8.81Q302.32,71,294.6,71q-9.11,0-14.1-4.92t-5-14.24q0-9.48,5.18-14.91t14.21-5.58q8.81,0,13.44,5.25T313,50.73Zm-25.85-2.06h15.5a12.19,12.19,0,0,0-1.87-6.9,6.23,6.23,0,0,0-5.48-2.57,7,7,0,0,0-5.54,2.38C288.32,43.17,287.46,45.54,287.11,48.67Z" transform="translate(0 -0.51)"/>
        <path class="cls-1" d="M355.77,70H343.29l-5-9.77a53.75,53.75,0,0,1-2.79-6.76h-1.39c-.54,1.42-1.28,3.06-2.2,4.92L331,60.2,326,70H313.84l11.75-20L314.65,32.37h12.48l4.26,7.85,1.1,2.28A32.67,32.67,0,0,1,334.18,46h1.76c.2-.49.79-1.71,1.77-3.67l1-2,4.11-7.93h12.12l-10.72,17.4Z" transform="translate(0 -0.51)"/>
        <path class="cls-1" d="M396.71,70.19a11.46,11.46,0,0,1-4.22.8,7.78,7.78,0,0,1-5.62-1.87,7.34,7.34,0,0,1-1.95-5.54,27.42,27.42,0,0,1,.3-2.94h-1.54q-1.33,5.28-4.63,7.82T370,71q-6,0-9.33-3a10.34,10.34,0,0,1-3.38-8,10.27,10.27,0,0,1,5-9.26q5-3.15,13.48-3.16a59.28,59.28,0,0,1,7,.44V45.58q0-6.45-6.61-6.46-5.79,0-7.27,6.39L359,43.6a12.49,12.49,0,0,1,5.58-8.88q4.85-3.39,12.71-3.38,8.22,0,12.44,3.6c2.82,2.39,4.22,5.8,4.22,10.2V58.73a4.89,4.89,0,0,0,.59,2.57,1.76,1.76,0,0,0,1.55,1,3,3,0,0,0,1.76-.67l1.91,6.91A11.32,11.32,0,0,1,396.71,70.19ZM378.83,52.63a14.56,14.56,0,0,0-7.42,1.58,5.12,5.12,0,0,0-2.64,4.67,4.34,4.34,0,0,0,1.35,3.41,5.26,5.26,0,0,0,3.64,1.21q8,0,8.89-10.64A34,34,0,0,0,378.83,52.63Z" transform="translate(0 -0.51)"/>
      </g>
      <text class="cls-2" transform="translate(390.56 31.85)">®</text>
    </g>
  </g>
</svg>
