<svg id="Layer_1" data-name="Layer 1" xmlns="http://www.w3.org/2000/svg" viewBox="0 0 45.78 50.1">
  <defs>
    <style>
      .cls-1 {
        fill: #3d59a8;
      }
    </style>
  </defs>
  <g>
    <path class="cls-1" d="M193.53-183.67a4.91,4.91,0,0,1-3.39-1.35,4.88,4.88,0,0,1-1.52-3.56,6.57,6.57,0,0,0-4.62-6.29,6.47,6.47,0,0,0-2-.3,5.05,5.05,0,0,1-1.84-.35,4.91,4.91,0,0,1-3.09-4.57,4.9,4.9,0,0,1,1.67-3.68,4.87,4.87,0,0,1,3.13-1.23,3.81,3.81,0,0,0,3.8-3.23,3.74,3.74,0,0,0-.9-2.94,3.67,3.67,0,0,0-2.77-1.25,4.93,4.93,0,0,1-3.26-1.23,4.93,4.93,0,0,1-1.67-3.69,4.91,4.91,0,0,1,3.09-4.57,5,5,0,0,1,1.84-.35,6.58,6.58,0,0,0,2-.3,6.55,6.55,0,0,0,4.61-6.28,4.92,4.92,0,0,1,1.52-3.56,4.87,4.87,0,0,1,3.39-1.36,4.92,4.92,0,0,1,4.92,4.92v11.5c0,.14,0,.29,0,.43a1.87,1.87,0,0,1-1.91,1.7,1.89,1.89,0,0,1-1.16-.39l-3-2.26a2.26,2.26,0,0,0-1.37-.46,2.27,2.27,0,0,0-2.27,2.27,2.26,2.26,0,0,0,.9,1.81l5.22,4a2,2,0,0,1,.78,1.56,1.93,1.93,0,0,1-.78,1.56l-5.22,4a2.26,2.26,0,0,0-.9,1.81,2.27,2.27,0,0,0,2.27,2.27,2.26,2.26,0,0,0,1.37-.46l3-2.26a1.89,1.89,0,0,1,1.16-.39,1.88,1.88,0,0,1,1.91,1.7c0,.14,0,.29,0,.43v11.33a5,5,0,0,1-4.47,5.07A3.39,3.39,0,0,1,193.53-183.67Z" transform="translate(-177.11 233.76)"/>
    <path class="cls-1" d="M206.47-183.67a4.91,4.91,0,0,0,3.39-1.35,4.88,4.88,0,0,0,1.52-3.56,6.57,6.57,0,0,1,4.62-6.29,6.47,6.47,0,0,1,2-.3,5.05,5.05,0,0,0,1.84-.35,4.91,4.91,0,0,0,3.09-4.57,4.9,4.9,0,0,0-1.67-3.68,4.87,4.87,0,0,0-3.13-1.23,3.81,3.81,0,0,1-3.8-3.23,3.74,3.74,0,0,1,.9-2.94,3.67,3.67,0,0,1,2.77-1.25,4.93,4.93,0,0,0,3.26-1.23,4.93,4.93,0,0,0,1.67-3.69,4.91,4.91,0,0,0-3.09-4.57,5,5,0,0,0-1.84-.35,6.58,6.58,0,0,1-2-.3,6.55,6.55,0,0,1-4.61-6.28,4.92,4.92,0,0,0-1.52-3.56,4.87,4.87,0,0,0-3.39-1.36,4.92,4.92,0,0,0-4.92,4.92v11.5c0,.14,0,.29,0,.43a1.87,1.87,0,0,0,1.91,1.7,1.89,1.89,0,0,0,1.16-.39l3-2.26a2.26,2.26,0,0,1,1.37-.46,2.27,2.27,0,0,1,2.27,2.27,2.26,2.26,0,0,1-.9,1.81l-5.22,4a2,2,0,0,0-.78,1.56,1.93,1.93,0,0,0,.78,1.56l5.22,4a2.26,2.26,0,0,1,.9,1.81,2.27,2.27,0,0,1-2.27,2.27,2.26,2.26,0,0,1-1.37-.46l-3-2.26a1.89,1.89,0,0,0-1.16-.39,1.88,1.88,0,0,0-1.91,1.7c0,.14,0,.29,0,.43v11.33a5,5,0,0,0,4.47,5.07A3.39,3.39,0,0,0,206.47-183.67Z" transform="translate(-177.11 233.76)"/>
  </g>
</svg>
