<svg id="Layer_1" data-name="Layer 1" xmlns="http://www.w3.org/2000/svg" viewBox="0 0 45.28 48.78">
  <defs>
    <style>
      .cls-1 {
        fill: #3d59a8;
      }

      .cls-2 {
        fill: none;
      }
    </style>
  </defs>
  <g>
    <path class="cls-1" d="M223.35-222.82a8.2,8.2,0,0,0-1.46-1,7.29,7.29,0,0,0,1.45-1,8,8,0,0,0,2.73-6,8,8,0,0,0-5-7.43,8,8,0,0,0-3-.57,1.51,1.51,0,0,1-.41-.06,1.35,1.35,0,0,1-.94-1.3,8,8,0,0,0-2.48-5.79,8,8,0,0,0-5.52-2.21,7.92,7.92,0,0,0-5.26,2,8,8,0,0,0-5.28-2,7.94,7.94,0,0,0-5.51,2.2,8.08,8.08,0,0,0-2.49,5.8,1.33,1.33,0,0,1-1,1.3,1.25,1.25,0,0,1-.4.06,7.83,7.83,0,0,0-3,.58,8,8,0,0,0-5,7.42,8,8,0,0,0,2.72,6,8.12,8.12,0,0,0,1.45,1,7.92,7.92,0,0,0-1.45,1,8,8,0,0,0-2.72,6,8,8,0,0,0,5,7.43,7.93,7.93,0,0,0,3,.58,1.35,1.35,0,0,1,.41.06,1.33,1.33,0,0,1,.95,1.3,7.93,7.93,0,0,0,2.49,5.8,8,8,0,0,0,5.51,2.2c.24,0,.49,0,.73,0a7.76,7.76,0,0,0,4.55-2,7.73,7.73,0,0,0,4.52,2c.25,0,.49,0,.74,0a7.94,7.94,0,0,0,5.51-2.21,7.89,7.89,0,0,0,2.49-5.79,1.34,1.34,0,0,1,1-1.3,1.27,1.27,0,0,1,.39-.06,8.08,8.08,0,0,0,3-.58,8,8,0,0,0,5-7.43A8,8,0,0,0,223.35-222.82Zm-21.18-8.06c0,.12,0,.24,0,.35a1.53,1.53,0,0,1-1.55,1.39,1.55,1.55,0,0,1-.95-.32l-2.43-1.84a1.8,1.8,0,0,0-1.11-.38,1.85,1.85,0,0,0-1.85,1.85,1.86,1.86,0,0,0,.73,1.48l4.26,3.23a1.57,1.57,0,0,1,.63,1.27,1.6,1.6,0,0,1-.63,1.27L195-219.35a1.83,1.83,0,0,0-.73,1.47,1.85,1.85,0,0,0,1.85,1.85,1.8,1.8,0,0,0,1.11-.38l2.43-1.84a1.55,1.55,0,0,1,.95-.32,1.53,1.53,0,0,1,1.55,1.38c0,.12,0,.24,0,.36v9.23a4.1,4.1,0,0,1-3.64,4.12l-.36,0a4,4,0,0,1-2.76-1.1,4,4,0,0,1-1.25-2.9,5.34,5.34,0,0,0-3.75-5.12,5.47,5.47,0,0,0-1.61-.25,3.84,3.84,0,0,1-1.49-.29,4,4,0,0,1-2.51-3.71,4,4,0,0,1,1.36-3,4,4,0,0,1,2.54-1,3.1,3.1,0,0,0,3.09-2.63,3,3,0,0,0-.72-2.39,3,3,0,0,0-2.27-1,4,4,0,0,1-2.64-1,4,4,0,0,1-1.36-3,4,4,0,0,1,2.51-3.71,4,4,0,0,1,1.49-.29,5.16,5.16,0,0,0,1.61-.25,5.33,5.33,0,0,0,3.75-5.11,4,4,0,0,1,1.25-2.9,3.93,3.93,0,0,1,2.76-1.11,4,4,0,0,1,4,4Zm17.38,17.76a3.84,3.84,0,0,1-1.49.29,5.47,5.47,0,0,0-1.61.25,5.34,5.34,0,0,0-3.75,5.12,4,4,0,0,1-1.25,2.9,4,4,0,0,1-2.76,1.1l-.36,0a4.1,4.1,0,0,1-3.64-4.12v-9.23c0-.12,0-.24,0-.36a1.53,1.53,0,0,1,1.55-1.38,1.55,1.55,0,0,1,1,.32l2.43,1.84a1.8,1.8,0,0,0,1.11.38,1.85,1.85,0,0,0,1.85-1.85,1.83,1.83,0,0,0-.73-1.47l-4.26-3.23a1.6,1.6,0,0,1-.63-1.27,1.57,1.57,0,0,1,.63-1.27l4.26-3.23a1.86,1.86,0,0,0,.73-1.48,1.85,1.85,0,0,0-1.85-1.85,1.8,1.8,0,0,0-1.11.38l-2.43,1.84a1.55,1.55,0,0,1-1,.32,1.53,1.53,0,0,1-1.55-1.39c0-.11,0-.23,0-.35v-9.36a4,4,0,0,1,4-4,3.93,3.93,0,0,1,2.76,1.11,4,4,0,0,1,1.25,2.9,5.33,5.33,0,0,0,3.75,5.11,5.16,5.16,0,0,0,1.61.25,4,4,0,0,1,1.49.29,4,4,0,0,1,2.51,3.71,4,4,0,0,1-1.36,3,4,4,0,0,1-2.64,1,3,3,0,0,0-2.27,1,3,3,0,0,0-.72,2.39,3.1,3.1,0,0,0,3.09,2.63,4,4,0,0,1,2.54,1,4,4,0,0,1,1.36,3A4,4,0,0,1,219.55-213.12Z" transform="translate(-180.79 248.24)"/>
    <g>
      <path class="cls-2" d="M194.26-229.83a1.86,1.86,0,0,0,.73,1.48l4.26,3.23a1.57,1.57,0,0,1,.63,1.27,1.6,1.6,0,0,1-.63,1.27L195-219.35a1.83,1.83,0,0,0-.73,1.47,1.85,1.85,0,0,0,1.85,1.85,1.8,1.8,0,0,0,1.11-.38l2.43-1.84a1.55,1.55,0,0,1,.95-.32,1.53,1.53,0,0,1,1.55,1.38c0,.12,0,.24,0,.36v9.23a4.1,4.1,0,0,1-3.64,4.12l-.36,0a4,4,0,0,1-2.76-1.1,4,4,0,0,1-1.25-2.9,5.34,5.34,0,0,0-3.75-5.12,5.47,5.47,0,0,0-1.61-.25,3.84,3.84,0,0,1-1.49-.29,4,4,0,0,1-2.51-3.71,4,4,0,0,1,1.36-3,4,4,0,0,1,2.54-1,3.1,3.1,0,0,0,3.09-2.63,3,3,0,0,0-.72-2.39,3,3,0,0,0-2.27-1,4,4,0,0,1-2.64-1,4,4,0,0,1-1.36-3,4,4,0,0,1,2.51-3.71,4,4,0,0,1,1.49-.29,5.16,5.16,0,0,0,1.61-.25,5.33,5.33,0,0,0,3.75-5.11,4,4,0,0,1,1.25-2.9,3.93,3.93,0,0,1,2.76-1.11,4,4,0,0,1,4,4v9.36c0,.12,0,.24,0,.35a1.53,1.53,0,0,1-1.55,1.39,1.55,1.55,0,0,1-.95-.32l-2.43-1.84a1.8,1.8,0,0,0-1.11-.38A1.85,1.85,0,0,0,194.26-229.83Z" transform="translate(-180.79 248.24)"/>
      <path class="cls-2" d="M220.7-219.83a4,4,0,0,1,1.36,3,4,4,0,0,1-2.51,3.71,3.84,3.84,0,0,1-1.49.29,5.47,5.47,0,0,0-1.61.25,5.34,5.34,0,0,0-3.75,5.12,4,4,0,0,1-1.25,2.9,4,4,0,0,1-2.76,1.1l-.36,0a4.1,4.1,0,0,1-3.64-4.12v-9.23c0-.12,0-.24,0-.36a1.53,1.53,0,0,1,1.55-1.38,1.55,1.55,0,0,1,1,.32l2.43,1.84a1.8,1.8,0,0,0,1.11.38,1.85,1.85,0,0,0,1.85-1.85,1.83,1.83,0,0,0-.73-1.47l-4.26-3.23a1.6,1.6,0,0,1-.63-1.27,1.57,1.57,0,0,1,.63-1.27l4.26-3.23a1.86,1.86,0,0,0,.73-1.48,1.85,1.85,0,0,0-1.85-1.85,1.8,1.8,0,0,0-1.11.38l-2.43,1.84a1.55,1.55,0,0,1-1,.32,1.53,1.53,0,0,1-1.55-1.39c0-.11,0-.23,0-.35v-9.36a4,4,0,0,1,4-4,3.93,3.93,0,0,1,2.76,1.11,4,4,0,0,1,1.25,2.9,5.33,5.33,0,0,0,3.75,5.11,5.16,5.16,0,0,0,1.61.25,4,4,0,0,1,1.49.29,4,4,0,0,1,2.51,3.71,4,4,0,0,1-1.36,3,4,4,0,0,1-2.64,1,3,3,0,0,0-2.27,1,3,3,0,0,0-.72,2.39,3.1,3.1,0,0,0,3.09,2.63A4,4,0,0,1,220.7-219.83Z" transform="translate(-180.79 248.24)"/>
    </g>
  </g>
</svg>
