<svg id="Layer_1" data-name="Layer 1" xmlns="http://www.w3.org/2000/svg" viewBox="0 0 137.44 23.81">
  <defs>
    <style>
      .cls-1, .cls-2 {
        fill: #3d59a8;
      }

      .cls-2 {
        font-size: 4.85px;
        font-family: VastagoGrotesk-Bold, Vastago Grotesk;
        font-weight: 700;
      }
    </style>
  </defs>
  <g>
    <g>
      <path class="cls-1" d="M155.82-215.92v16.4a2.24,2.24,0,0,1-2.25,2.24h-3.1v-7.87c0-1.52.1-3.13.23-4.8.17-2.12.41-4.12.7-6a.54.54,0,0,0-.36-.19.53.53,0,0,0-.4.13q-2.41,9.36-4.85,18.71h-6.12l-5.15-18.61a.41.41,0,0,0-.45-.23.44.44,0,0,0-.29.28c.31,1.84.57,3.84.74,6,.14,1.65.21,3.23.24,4.72v7.87h-3.11a2.24,2.24,0,0,1-2.24-2.24v-16.4a4.58,4.58,0,0,1,4.57-4.57,4.57,4.57,0,0,1,4.29,3l1.7,4.69q1,3.06,1.65,5.87c.45,1.88.76,3.49.94,4.83a.2.2,0,0,0,.16.14.18.18,0,0,0,.21-.14c.23-1.51.5-3.12.89-4.79s.93-3.75,1.57-5.91l1.49-4.55a4.58,4.58,0,0,1,4.34-3.15h0A4.58,4.58,0,0,1,155.82-215.92Z" transform="translate(-129.41 220.62)"/>
      <path class="cls-1" d="M160.29-219.88a3.73,3.73,0,0,1,2.35-.61,3.79,3.79,0,0,1,2.37.62,2,2,0,0,1,.79,1.67c0,1.55-1.05,2.32-3.16,2.32s-3.13-.77-3.13-2.32A2,2,0,0,1,160.29-219.88Zm-.2,22.6V-214.5h5.11v17.22Z" transform="translate(-129.41 220.62)"/>
      <path class="cls-1" d="M185.88-209.35v12.07H180.8v-10.29a3.6,3.6,0,0,0-.69-2.37,2.54,2.54,0,0,0-2.06-.83,3.22,3.22,0,0,0-2.9,1.77,11.24,11.24,0,0,0-1,5.5v6.22H169V-214.5h4.2l.44,4.37h.64c1-3.23,3.07-4.84,6.25-4.84a5.26,5.26,0,0,1,4,1.44A5.8,5.8,0,0,1,185.88-209.35Z" transform="translate(-129.41 220.62)"/>
      <path class="cls-1" d="M206.87-220.62l.37,23.34h-4.17l-.34-4.27H202a5.78,5.78,0,0,1-6.15,4.74,6.93,6.93,0,0,1-5.42-2.3c-1.37-1.54-2-3.76-2-6.68a11.62,11.62,0,0,1,1-5.1,7,7,0,0,1,2.71-3.07,7.06,7.06,0,0,1,3.71-1q4.78,0,6.09,4.84h.71c0-.22,0-.87-.14-2q-.3-2.89-.3-4.71l-.37-3.83Zm-5.45,14.7a6.7,6.7,0,0,0-1.06-3.86,3.26,3.26,0,0,0-2.81-1.46,3.31,3.31,0,0,0-2.82,1.41,6.76,6.76,0,0,0-1,4.07,6.49,6.49,0,0,0,1,4,3.43,3.43,0,0,0,2.91,1.35,3.24,3.24,0,0,0,2.79-1.41A6.91,6.91,0,0,0,201.42-205.92Z" transform="translate(-129.41 220.62)"/>
      <path class="cls-1" d="M227-206.09c0,.29,0,.79-.06,1.51H215.14a5.14,5.14,0,0,0,1.16,3.05,3.37,3.37,0,0,0,2.58,1,3.65,3.65,0,0,0,2.37-.74,4.31,4.31,0,0,0,1.36-1.95l4.17.84a6.55,6.55,0,0,1-2.61,4,9.28,9.28,0,0,1-5.6,1.51,8.79,8.79,0,0,1-6.45-2.25q-2.3-2.25-2.29-6.53a9.51,9.51,0,0,1,2.37-6.83,8.78,8.78,0,0,1,6.51-2.55,7.76,7.76,0,0,1,6.15,2.4A9.42,9.42,0,0,1,227-206.09ZM215.14-207h7.1a5.59,5.59,0,0,0-.86-3.17,2.85,2.85,0,0,0-2.5-1.17,3.2,3.2,0,0,0-2.54,1.09A5.81,5.81,0,0,0,215.14-207Z" transform="translate(-129.41 220.62)"/>
      <path class="cls-1" d="M246.59-197.28h-5.72l-2.29-4.47a24.47,24.47,0,0,1-1.27-3.1h-.64c-.25.65-.59,1.4-1,2.26l-.4.84-2.33,4.47h-5.55l5.39-9.15-5-8.07h5.72l1.95,3.6.51,1a15.55,15.55,0,0,1,.77,1.58h.81q.13-.33.81-1.68l.43-.91,1.89-3.63h5.55l-4.91,8Z" transform="translate(-129.41 220.62)"/>
      <path class="cls-1" d="M265.34-197.18a5.1,5.1,0,0,1-1.93.37,3.56,3.56,0,0,1-2.58-.86,3.37,3.37,0,0,1-.89-2.54,13.25,13.25,0,0,1,.14-1.34h-.71a6.2,6.2,0,0,1-2.12,3.58,6.68,6.68,0,0,1-4.14,1.16,6.15,6.15,0,0,1-4.27-1.39,4.74,4.74,0,0,1-1.54-3.69,4.7,4.7,0,0,1,2.3-4.24,11.55,11.55,0,0,1,6.17-1.44,27.89,27.89,0,0,1,3.2.2v-1.08c0-2-1-3-3-3q-2.66,0-3.33,2.93l-4.54-.87a5.7,5.7,0,0,1,2.56-4.07,9.9,9.9,0,0,1,5.81-1.55,8.59,8.59,0,0,1,5.71,1.65,5.81,5.81,0,0,1,1.93,4.67v6.22a2.22,2.22,0,0,0,.27,1.18.81.81,0,0,0,.71.44,1.35,1.35,0,0,0,.8-.3l.88,3.16A5.21,5.21,0,0,1,265.34-197.18Zm-8.19-8a6.58,6.58,0,0,0-3.4.73,2.34,2.34,0,0,0-1.21,2.13,2,2,0,0,0,.62,1.57,2.42,2.42,0,0,0,1.67.55q3.66,0,4.07-4.88C258.29-205.18,257.71-205.22,257.15-205.22Z" transform="translate(-129.41 220.62)"/>
    </g>
    <text class="cls-2" transform="translate(133.11 6.12)">®</text>
  </g>
</svg>
